<svg id="Layer_1" data-name="Layer 1" xmlns="http://www.w3.org/2000/svg" viewBox="0 0 2531.83 501.23"><defs><style>.cls-1{fill:#d2532d;}</style></defs><title>devthagichu logo</title><path class="cls-1" d="M1537.13,256.42V196a75.51,75.51,0,0,1,75.51-75.5h196.3v135.9Z"/><path class="cls-1" d="M1537.13,259.42v60.4a75.51,75.51,0,0,0,75.51,75.5h196.3V259.42Z"/><path class="cls-1" d="M1045.5,257.42v60.4a75.51,75.51,0,0,0,75.51,75.5h196.3V257.42Z"/><path class="cls-1" d="M1045.5,252.42V192a75.51,75.51,0,0,1,75.51-75.5h196.3v60.39a75.51,75.51,0,0,1-75.51,75.51Z"/><rect class="cls-1" x="169.16" y="125.52" width="141.22" height="272.8"/><rect class="cls-1" x="103.37" y="119.36" width="272.8" height="141.22"/><rect class="cls-1" x="1356.61" y="128.51" width="141.22" height="272.8"/><path class="cls-1" d="M874.79,120h60.39a75.51,75.51,0,0,1,75.51,75.5v196.3H874.79Z"/><path class="cls-1" d="M870.78,120H810.39a75.51,75.51,0,0,0-75.51,75.5v196.3h135.9Z"/><path class="cls-1" d="M2301.7,400.82h-60.4a75.5,75.5,0,0,1-75.5-75.5V129h135.9Z"/><path class="cls-1" d="M2306.7,400.82h60.4a75.5,75.5,0,0,0,75.5-75.5V129H2306.7Z"/><rect class="cls-1" x="411.72" y="123.11" width="141.22" height="272.8"/><rect class="cls-1" x="557.5" y="123.11" width="141.22" height="272.8"/><rect class="cls-1" x="1842.59" y="121.32" width="141.22" height="272.8"/><rect class="cls-1" x="1988.37" y="121.32" width="141.22" height="272.8"/></svg>